<?xml version="1.0" encoding="utf-8"?>
<!-- Generator: Adobe Illustrator 19.0.0, SVG Export Plug-In . SVG Version: 6.00 Build 0)  -->
<svg version="1.1" id="Layer_3" xmlns="http://www.w3.org/2000/svg" xmlns:xlink="http://www.w3.org/1999/xlink" x="0px" y="0px"
	 viewBox="0 0 664.2 138.8" style="enable-background:new 0 0 664.2 138.8;" xml:space="preserve">
<style type="text/css">
	.st0{filter:url(#Adobe_OpacityMaskFilter);}
	.st1{fill:url(#XMLID_119_);}
	.st2{mask:url(#XMLID_118_);}
	.st3{filter:url(#Adobe_OpacityMaskFilter_1_);}
	.st4{fill:url(#XMLID_121_);}
	.st5{mask:url(#XMLID_120_);}
	.st6{filter:url(#Adobe_OpacityMaskFilter_2_);}
	.st7{fill:url(#XMLID_123_);}
	.st8{mask:url(#XMLID_122_);}
	.st9{filter:url(#Adobe_OpacityMaskFilter_3_);}
	.st10{fill:url(#XMLID_125_);}
	.st11{mask:url(#XMLID_124_);}
	.st12{fill:#424242;}
	.st13{fill:#191919;}
	.st14{fill:#00ADEF;}
</style>
<g id="Layer_2">
	<defs>
		<filter id="Adobe_OpacityMaskFilter" filterUnits="userSpaceOnUse">
			<feColorMatrix  type="matrix" values="1 0 0 0 0  0 1 0 0 0  0 0 1 0 0  0 0 0 1 0"/>
		</filter>
	</defs>
	<mask maskUnits="userSpaceOnUse" id="XMLID_118_">
		<g id="XMLID_1513_" class="st0">
			
				<linearGradient id="XMLID_119_" gradientUnits="userSpaceOnUse" x1="-4163.6357" y1="-37.3207" x2="-4314.3755" y2="-138.592" gradientTransform="matrix(-0.9923 0.1239 -0.1239 -0.9923 599.0561 -177.4073)">
				<stop  offset="0" style="stop-color:#FFFFFF"/>
				<stop  offset="1" style="stop-color:#231F20"/>
			</linearGradient>
			<polygon id="XMLID_1514_" class="st1" points="4950.4,-639 4793.3,-619.4 4804.5,-530 4961.5,-549.6 			"/>
		</g>
	</mask>
	<g id="XMLID_1515_" class="st2">
	</g>
	<g id="XMLID_1131_">
		<defs>
			<filter id="Adobe_OpacityMaskFilter_1_" filterUnits="userSpaceOnUse">
				<feColorMatrix  type="matrix" values="1 0 0 0 0  0 1 0 0 0  0 0 1 0 0  0 0 0 1 0"/>
			</filter>
		</defs>
		<mask maskUnits="userSpaceOnUse" id="XMLID_120_">
			<g id="XMLID_1957_" class="st3">
				
					<linearGradient id="XMLID_121_" gradientUnits="userSpaceOnUse" x1="4861.3271" y1="-551.2248" x2="4375.5034" y2="-877.6146" gradientTransform="matrix(0.1239 0.9923 -0.9923 0.1239 -2810.9973 -4524.4863)">
					<stop  offset="0" style="stop-color:#FFFFFF"/>
					<stop  offset="1" style="stop-color:#231F20"/>
				</linearGradient>
				<polygon id="XMLID_1958_" class="st4" points="-1606.1,-462.1 -1542.9,43.9 -1254.8,8 -1318,-498.1 				"/>
			</g>
		</mask>
		<g id="XMLID_1959_" class="st5">
		</g>
		<g id="XMLID_649_">
			<defs>
				<filter id="Adobe_OpacityMaskFilter_2_" filterUnits="userSpaceOnUse">
					<feColorMatrix  type="matrix" values="1 0 0 0 0  0 1 0 0 0  0 0 1 0 0  0 0 0 1 0"/>
				</filter>
			</defs>
			<mask maskUnits="userSpaceOnUse" id="XMLID_122_">
				<g id="XMLID_653_" class="st6">
					
						<linearGradient id="XMLID_123_" gradientUnits="userSpaceOnUse" x1="6038.4282" y1="1308.9481" x2="5552.605" y2="982.5583" gradientTransform="matrix(0.9923 -0.1239 0.1239 0.9923 -7192.8193 -1101.4744)">
						<stop  offset="0" style="stop-color:#FFFFFF"/>
						<stop  offset="1" style="stop-color:#231F20"/>
					</linearGradient>
					<polygon id="XMLID_654_" class="st7" points="-1732,-606.3 -1225.9,-669.5 -1261.9,-957.7 -1768,-894.5 					"/>
				</g>
			</mask>
			<g id="XMLID_650_" class="st8">
			</g>
		</g>
	</g>
	<g id="XMLID_1714_">
	</g>
	<g id="XMLID_648_">
	</g>
</g>
<defs>
	<filter id="Adobe_OpacityMaskFilter_3_" filterUnits="userSpaceOnUse">
		<feColorMatrix  type="matrix" values="1 0 0 0 0  0 1 0 0 0  0 0 1 0 0  0 0 0 1 0"/>
	</filter>
</defs>
<mask maskUnits="userSpaceOnUse" id="XMLID_124_">
	<g id="XMLID_2290_" class="st9">
		
			<linearGradient id="XMLID_125_" gradientUnits="userSpaceOnUse" x1="666.3463" y1="-284.3387" x2="536.8459" y2="-371.3406" gradientTransform="matrix(-0.9923 0.1239 -0.1239 -0.9923 599.0561 -177.4073)">
			<stop  offset="0" style="stop-color:#FFFFFF"/>
			<stop  offset="1" style="stop-color:#231F20"/>
		</linearGradient>
		<polygon id="XMLID_641_" class="st10" points="157.9,202.1 23,219 32.6,295.8 167.5,278.9 		"/>
	</g>
</mask>
<g id="XMLID_2292_" class="st11">
</g>
<path id="XMLID_28_" class="st12" d="M84.3,19.4c-9.3-3.1-22.2-4.6-36.1,1.6c-0.3,0.1-0.6,0.2-0.8,0.4l0,0
	c-11.8,5.3-21.6,14.9-26.8,27.8c0,0.1-0.1,0.2-0.1,0.2c-1.4,3.6-2.4,7.2-3,10.8L2.9,88.1C-1.4,73.8-1.1,57.9,5,42.9
	c3.3-8.2,8-15.4,13.7-21.5c5.7-6.1,12.5-11,19.8-14.6C40,6.2,41.4,5.6,43,5C56.6-0.5,71-1.3,84.4,1.9c0,0,0,0,0,0
	c8,1.4,16.4,6.2,17.5,6.8c0,0,0.1,0,0.1,0c0,0,0,0,0,0c9.1,5.1,17.1,12.3,23.2,21.3l-15,7.9c-4.5-6.1-10.2-11-16.6-14.5
	C92.4,22.7,88.9,20.9,84.3,19.4L84.3,19.4z"/>
<path id="XMLID_29_" class="st12" d="M131.7,95c-2.7,6.3-6.2,12.3-10.7,17.6l-8.3-17.2c0-0.1,0.1-0.1,0.1-0.2L97.7,64.5L80.3,90.8
	L68.1,74.3l30.2-43.6l5.4,10.4l-0.1,0L131.7,95z"/>
<polyline id="XMLID_18_" class="st13" points="80.3,90.8 71.3,69.7 68.3,74 "/>
<path id="XMLID_2303_" class="st14" d="M17,72.6c0,0,0-0.1,0-0.1L5.3,94.8c2.7,6.4,6.3,12.4,10.8,17.8v0l0,0
	c18.5,22.1,49.8,30.9,78.1,19.5c9.1-3.7,16.9-9,23.4-15.6l-8.1-16.3c-5.4,7.1-12.8,12.8-21.6,16.4C64,126,37.2,116.6,24.3,95.3l0,0
	c0-0.1-0.1-0.1-0.1-0.2l15.1-30.7l29.2,44.2l11.8-17.9l-41.6-60L17,72.6z"/>
<g id="XMLID_34_">
	<path id="XMLID_35_" class="st12" d="M193.6,118.5H183l-0.1-27.9c0-2.1-0.4-3.7-1.2-4.8c-0.8-1.1-1.9-1.6-3.4-1.6
		c-1.5,0-2.6,0.6-3.5,1.7c-0.9,1.2-1.5,2.9-2.1,5.1v27.4h-10.6l-0.1-27.9c-0.1-4.3-1.6-6.4-4.6-6.4c-1.5,0-2.6,0.6-3.5,1.7
		c-0.9,1.2-1.5,2.9-2,5.3v27.3h-10.7V75.6h10.4v3.6c1-1.6,2.3-2.7,3.8-3.5c1.5-0.8,3-1.2,4.6-1.2c2,0,3.7,0.4,5.2,1.3
		c1.5,0.9,2.8,2.2,3.9,4c1.3-1.8,2.9-3.1,4.7-4c1.8-0.9,3.8-1.4,5.9-1.4c4.3,0,7.6,1.3,10.1,4c2.5,2.7,3.7,6.3,3.7,10.9V118.5z"/>
	<path id="XMLID_37_" class="st12" d="M235.1,75.6l-12.9,44.8c-0.8,2.6-1.6,4.8-2.5,6.6c-0.9,1.8-1.9,3.2-3,4.3
		c-1.1,1.1-2.3,1.8-3.7,2.3s-2.8,0.7-4.5,0.7c-1.6,0-3.3-0.3-5.1-0.8v-9.8c1.5,0.9,2.9,1.3,4.3,1.3c1.1,0,1.9-0.5,2.6-1.4
		c0.7-0.9,1.2-2.3,1.4-4.2l-12.9-43.6h11.2l7,24.8l6.9-24.8H235.1z"/>
	<path id="XMLID_39_" class="st12" d="M279.8,112c-1.9,2.5-4.3,4.5-7.1,5.9c-2.8,1.4-6,2.1-9.6,2.1c-7.8,0-13.7-2.6-17.9-7.9
		c-4.2-5.3-6.3-12.8-6.3-22.7s2.1-17.4,6.2-22.7c4.1-5.3,10.1-8,18-8c3.5,0,6.7,0.7,9.5,2c2.8,1.4,5.2,3.3,7.1,5.7l-7.6,7.6
		c-1-1.6-2.3-2.9-3.9-3.8c-1.6-0.9-3.3-1.4-5.2-1.4c-2.2,0-4.1,0.5-5.7,1.5c-1.6,1-2.9,2.4-4,4.2c-1,1.8-1.8,3.9-2.3,6.4
		c-0.5,2.5-0.7,5.2-0.7,8.3c0,3,0.2,5.8,0.7,8.3c0.5,2.5,1.2,4.7,2.3,6.5c1,1.8,2.4,3.2,4,4.2c1.6,1,3.5,1.5,5.7,1.5
		c1.9,0,3.7-0.5,5.2-1.4c1.6-0.9,2.9-2.2,4-3.8L279.8,112z"/>
	<path id="XMLID_41_" class="st12" d="M318.4,118.5h-8.6c-0.9,0-1.5-0.3-1.9-0.9c-0.4-0.6-0.7-1.3-0.9-2.2c-0.6,0.7-1.2,1.2-1.8,1.8
		c-0.6,0.5-1.2,1-2,1.4c-0.7,0.4-1.6,0.7-2.5,0.9c-0.9,0.2-2,0.3-3.2,0.3c-1.9,0-3.6-0.3-5.3-0.8c-1.7-0.6-3.2-1.4-4.5-2.6
		c-1.3-1.2-2.3-2.6-3.1-4.3c-0.8-1.7-1.1-3.7-1.1-6.1c0-3,0.6-5.5,1.7-7.5c1.1-2,2.5-3.5,4.2-4.7c1.7-1.2,3.5-2,5.5-2.4
		c2-0.5,3.8-0.7,5.5-0.7c1.6,0,3.1,0.2,4.5,0.5c0.3-2.4-0.1-4.2-1-5.4c-0.9-1.3-2.4-1.9-4.4-1.9c-1.6,0-3.3,0.3-5.2,1
		c-1.9,0.7-3.6,1.6-5.2,2.7l-3.9-8.4c2.3-1.5,4.8-2.6,7.5-3.4c2.7-0.8,5.3-1.2,7.7-1.2c2.7,0,4.9,0.4,6.8,1.2c1.9,0.8,3.4,2,4.6,3.4
		c1.2,1.4,2.1,3.1,2.6,5.1c0.5,1.9,0.8,4,0.8,6.3V109C315.6,113,316.6,116.2,318.4,118.5z M304.9,107.7v-8c-0.6-0.2-1.1-0.3-1.6-0.4
		c-0.5,0-1.1-0.1-1.8-0.1c-0.7,0-1.4,0.1-2.2,0.4c-0.8,0.3-1.5,0.6-2.2,1.2c-0.7,0.5-1.3,1.2-1.8,2.1c-0.5,0.9-0.7,1.9-0.7,3.1
		c0,1.8,0.5,3.1,1.6,4s2.1,1.4,3.2,1.4C301.8,111.3,303.7,110.1,304.9,107.7z"/>
	<path id="XMLID_44_" class="st12" d="M377.1,118.5h-10.6l-0.1-27.9c0-2.1-0.4-3.7-1.2-4.8c-0.8-1.1-1.9-1.6-3.4-1.6
		c-1.5,0-2.6,0.6-3.5,1.7c-0.9,1.2-1.5,2.9-2.1,5.1v27.4h-10.6l-0.1-27.9c-0.1-4.3-1.6-6.4-4.6-6.4c-1.5,0-2.6,0.6-3.5,1.7
		c-0.9,1.2-1.5,2.9-2,5.3v27.3h-10.7V75.6h10.4v3.6c1-1.6,2.3-2.7,3.8-3.5c1.5-0.8,3-1.2,4.6-1.2c2,0,3.7,0.4,5.2,1.3
		c1.5,0.9,2.8,2.2,3.9,4c1.3-1.8,2.9-3.1,4.7-4c1.8-0.9,3.8-1.4,5.9-1.4c4.3,0,7.6,1.3,10.1,4c2.5,2.7,3.7,6.3,3.7,10.9V118.5z"/>
	<path id="XMLID_46_" class="st12" d="M420.5,97.2c0,3.3-0.4,6.4-1.1,9.1c-0.8,2.8-1.8,5.2-3.2,7.2c-1.4,2-3,3.6-5,4.7
		c-1.9,1.1-4,1.7-6.4,1.7c-1.5,0-3-0.3-4.5-0.9s-2.7-1.6-3.7-3V134h-10.7V75.6h10.7l0.1,2.9c0.9-1.3,2-2.3,3.4-3
		c1.4-0.8,2.9-1.1,4.6-1.1c2.6,0,4.9,0.6,6.9,1.9c2,1.3,3.6,2.9,4.9,5c1.3,2.1,2.3,4.5,3,7.2C420.2,91.3,420.5,94.2,420.5,97.2z
		 M409.6,97.2c0-1.7-0.1-3.4-0.4-4.9c-0.3-1.6-0.7-3-1.3-4.2c-0.6-1.2-1.4-2.2-2.3-3c-0.9-0.8-2-1.1-3.3-1.1c-1.3,0-2.5,0.5-3.4,1.4
		c-1,1-1.8,2.3-2.4,3.9v15.4c0.5,1.9,1.3,3.3,2.3,4.2c1,1,2.1,1.4,3.3,1.4c2.7,0,4.6-1.2,5.8-3.5C409,104.5,409.6,101.2,409.6,97.2z
		"/>
	<path id="XMLID_49_" class="st12" d="M459.2,118.6h-10.3v-3.5c-1,1.5-2.3,2.7-4,3.5c-1.7,0.8-3.3,1.2-4.9,1.2c-2,0-3.8-0.4-5.4-1.1
		c-1.6-0.7-2.9-1.7-4-3c-1.1-1.3-1.9-2.8-2.5-4.6c-0.6-1.8-0.8-3.7-0.8-5.8V75.7H438v27.9c0,2.5,0.5,4.2,1.4,5.1
		c0.9,0.9,2.1,1.3,3.5,1.3c1.4,0,2.6-0.5,3.5-1.4c0.9-0.9,1.6-2.6,2-5.1V75.7h10.7V118.6z"/>
	<path id="XMLID_51_" class="st12" d="M494.2,106.5c0,1.9-0.3,3.6-1,5.2c-0.7,1.6-1.6,3-2.8,4.2c-1.2,1.2-2.6,2.2-4.2,2.8
		c-1.6,0.7-3.4,1-5.3,1c-3.8,0-7-0.8-9.6-2.3c-2.6-1.6-4.7-3.9-6.3-6.9l8.1-4.5c0.7,1.5,1.5,2.7,2.6,3.5c1.1,0.8,2.3,1.2,3.6,1.2
		c1.3,0,2.4-0.4,3.2-1.2c0.8-0.8,1.2-1.8,1.2-3c0-1.1-0.3-2-1-2.8s-1.7-1.5-3.2-2.2c-0.4-0.2-0.8-0.4-1.3-0.6
		c-0.4-0.2-0.8-0.3-1.2-0.5c-0.4-0.2-0.8-0.4-1.2-0.6c-0.8-0.4-1.6-0.8-2.3-1.2c-0.7-0.4-1.4-0.9-2-1.4c-1.4-1.1-2.5-2.4-3.4-4
		c-0.9-1.6-1.3-3.6-1.3-6c0-1.8,0.3-3.5,1-5c0.7-1.5,1.6-2.9,2.8-4c1.2-1.2,2.7-2.1,4.3-2.7c1.7-0.7,3.6-1,5.6-1
		c2.8,0,5.2,0.5,7.4,1.6c2.2,1.1,3.9,2.4,5.2,4.1l-6.5,6.5c-1.3-2.1-3-3.1-5.4-3.1c-1.1,0-2.1,0.4-2.9,1.1c-0.9,0.7-1.3,1.6-1.3,2.6
		c0,1.1,0.3,2,0.9,2.7c0.6,0.7,1.6,1.4,3.1,2.1l2.3,1.1c1.8,0.8,3.3,1.6,4.6,2.5c1.3,0.8,2.5,1.8,3.4,2.8c0.9,1,1.6,2.2,2,3.5
		C494,103.1,494.2,104.7,494.2,106.5z"/>
	<path id="XMLID_53_" class="st12" d="M552.4,118.5h-11.5v-37l-13.6,24.1l-13.6-24.1v37h-11.5V59.6h11.3L527.3,84l13.8-24.4h11.3
		V118.5z"/>
	<path id="XMLID_55_" class="st12" d="M595.4,118.5h-8.6c-0.9,0-1.5-0.3-1.9-0.9c-0.4-0.6-0.7-1.3-0.9-2.2c-0.6,0.7-1.2,1.2-1.8,1.8
		c-0.6,0.5-1.2,1-2,1.4c-0.7,0.4-1.6,0.7-2.5,0.9c-0.9,0.2-2,0.3-3.2,0.3c-1.9,0-3.6-0.3-5.3-0.8c-1.7-0.6-3.2-1.4-4.5-2.6
		c-1.3-1.2-2.3-2.6-3.1-4.3c-0.8-1.7-1.1-3.7-1.1-6.1c0-3,0.6-5.5,1.7-7.5c1.1-2,2.5-3.5,4.2-4.7c1.7-1.2,3.5-2,5.5-2.4
		c2-0.5,3.8-0.7,5.5-0.7c1.6,0,3.1,0.2,4.5,0.5c0.3-2.4-0.1-4.2-1-5.4c-0.9-1.3-2.4-1.9-4.4-1.9c-1.6,0-3.3,0.3-5.2,1
		c-1.9,0.7-3.6,1.6-5.2,2.7l-3.9-8.4c2.3-1.5,4.8-2.6,7.5-3.4c2.7-0.8,5.3-1.2,7.7-1.2c2.7,0,4.9,0.4,6.8,1.2c1.9,0.8,3.4,2,4.6,3.4
		c1.2,1.4,2.1,3.1,2.6,5.1c0.5,1.9,0.8,4,0.8,6.3V109C592.6,113,593.5,116.2,595.4,118.5z M581.9,107.7v-8c-0.6-0.2-1.1-0.3-1.6-0.4
		c-0.5,0-1.1-0.1-1.8-0.1c-0.7,0-1.4,0.1-2.2,0.4c-0.8,0.3-1.5,0.6-2.2,1.2c-0.7,0.5-1.3,1.2-1.8,2.1c-0.5,0.9-0.7,1.9-0.7,3.1
		c0,1.8,0.5,3.1,1.6,4c1.1,0.9,2.1,1.4,3.2,1.4C578.8,111.3,580.6,110.1,581.9,107.7z"/>
	<path id="XMLID_112_" class="st12" d="M621.7,118.6c-1,0.4-1.9,0.6-2.8,0.8c-0.9,0.2-2.1,0.3-3.5,0.3c-1.7,0-3.2-0.2-4.6-0.7
		s-2.7-1.2-3.8-2.2c-1.1-1-1.9-2.3-2.6-3.8c-0.6-1.6-0.9-3.4-0.9-5.7V84.8h-4.9v-9.1h4.9v-7.8l10.6-6.1l0.1,13.9h7.2v9.1H614v20.3
		c0,1.9,0.4,3.2,1.2,3.9c0.8,0.7,1.6,1.1,2.5,1.1c1.4,0,2.7-0.3,4-1V118.6z"/>
	<path id="XMLID_114_" class="st12" d="M661.6,99.1l-0.1,2h-24.2c0.2,2.8,1,5.1,2.3,6.8c1.3,1.7,3,2.6,4.9,2.7
		c1.6,0.1,3-0.2,4.2-0.9c1.2-0.6,2.2-1.6,3.2-2.9l6.8,6.8c-1.7,1.9-3.8,3.4-6.1,4.5c-2.4,1.1-5.1,1.7-8.1,1.7
		c-5.9,0-10.5-2-13.6-5.9c-3.1-3.9-4.7-9.6-4.7-17c0-3.4,0.4-6.5,1.2-9.3c0.8-2.8,2-5.1,3.5-7.1c1.5-1.9,3.4-3.4,5.6-4.5
		c2.2-1.1,4.7-1.6,7.6-1.6c3.1,0,5.8,0.6,8.1,1.9c2.3,1.3,4.2,3,5.6,5.2c1.4,2.2,2.5,4.8,3.1,7.8C661.5,92.4,661.8,95.6,661.6,99.1z
		 M650.9,93.1c-0.1-2.8-0.7-5.1-1.9-6.8c-1.2-1.7-2.7-2.6-4.8-2.6c-1,0-1.8,0.3-2.7,0.8c-0.8,0.5-1.5,1.2-2.2,2
		c-0.6,0.9-1.1,1.9-1.5,3c-0.4,1.2-0.6,2.4-0.7,3.6H650.9z"/>
</g>
</svg>
