<?xml version="1.0" encoding="utf-8"?>
<!-- Generator: Adobe Illustrator 19.0.0, SVG Export Plug-In . SVG Version: 6.00 Build 0)  -->
<svg version="1.1" id="Layer_1" xmlns="http://www.w3.org/2000/svg" xmlns:xlink="http://www.w3.org/1999/xlink" x="0px" y="0px"
	 viewBox="0 0 60.5 42.3" style="enable-background:new 0 0 60.5 42.3;" xml:space="preserve">
<style type="text/css">
	.st0{fill:#19365A;}
	.st1{fill:#F1AB00;}
	.st2{fill:#0E2139;}
	.st3{fill:#091625;}
	.st4{fill:#325075;}
	.st5{fill:#E2A437;}
	.st6{fill:#EC822D;}
</style>
<g id="XMLID_105_">
	<g id="XMLID_1_">
		<path id="XMLID_2_" class="st0" d="M29.4,40h-2.1V26.3h3l1.9,9.8l1.8-9.8h2.8V40h-2.1v-8.6L33,40h-1.7l-2-8.6V40z"/>
		<path id="XMLID_4_" class="st0" d="M41.2,36.8L40.7,40h-2.1l2.3-13.6h2.8L46,40h-2.2l-0.5-3.1H41.2z M42.3,29.5l-0.8,5.4h1.5
			L42.3,29.5z"/>
		<path id="XMLID_7_" class="st0" d="M48,28.4h-2.2v-2.1h6.4v2.1h-2.2V40H48V28.4z"/>
		<path id="XMLID_9_" class="st0" d="M53.9,40V26.3h5.9v2.1H56v3.7h2.8v2.1H56v3.7h3.8V40H53.9z"/>
	</g>
	<g id="XMLID_106_">
		<path id="XMLID_131_" class="st1" d="M13.4,9H8.1v31h5.3L13.4,9z M20.8,26c1.8-0.8,3.7-2.8,3.7-7.8c0-6.6-3-9.1-9-9.1h-2l0.9,5.4
			l3.1-4.9l0,0l-2,5.9l5.3-3.2l0,0l-4.3,4.4l7.3-0.9l0,0l-7,2.4l7,2.4l0,0l-7.3-0.9l4.3,4.4l0,0l-5.3-3.2l2,5.9l0,0l-3.1-4.9
			l-0.9,5.4c0.9,0,1.9,0,2.6-0.1L19.9,40h5.4L20.8,26z"/>
		<g id="XMLID_107_">
			<path id="XMLID_112_" class="st2" d="M20.8,4.2l2.3,6.9c-2.7,4.9-11.9,5.3-15.8,3.9L5.8,6.1L20.8,4.2z"/>
			<path id="XMLID_110_" class="st3" d="M10.7,8.3l4.7,7.2c-3,0.5-6.1,0.2-8-0.5L5.8,6.1L10.7,8.3z"/>
			<polygon id="XMLID_109_" class="st0" points="25.7,0.7 10.5,0 0,8.9 17.2,12.1 			"/>
			<polygon id="XMLID_108_" class="st4" points="17.1,11.7 0.6,8.6 2.1,7.2 0,8.9 17.2,12.1 23.6,3.5 			"/>
			<path id="XMLID_111_" class="st5" d="M8.7,11.7c0,0,0.2,0.2,0.3,0.7c0.1,0.5,0,2.3,0,2.3c-0.1,0.2-0.6,0.3-0.8,0
				c0,0-0.1-2.1,0-2.3c0.1-0.5,0.2-0.7,0.2-0.7L8.7,11.7z"/>
			<path id="XMLID_117_" class="st6" d="M8.3,11.5c0.1-0.1,0.4-0.1,0.5,0c0.1,0.1,0,0.3-0.2,0.3C8.3,11.9,8.1,11.7,8.3,11.5z"/>
			<path id="XMLID_136_" class="st5" d="M14.1,4.1l-5.3,6.3c-0.1,0.1-0.1,0.1-0.1,0.2l0,0.9c-0.1,0.1-0.2,0.1-0.3,0l0-1
				c0-0.1,0-0.2,0.1-0.3L13.9,4C14,3.9,14.1,4,14.1,4.1z"/>
		</g>
	</g>
</g>
</svg>
